<svg width="30" height="30" viewBox="0 0 30 30" fill="none" xmlns="http://www.w3.org/2000/svg">
<path fill-rule="evenodd" clip-rule="evenodd" d="M14.3451 24.9061C11.9853 22.8397 6.12505 17.2651 6.12505 12.8625C6.12505 7.35002 9.80006 3.67502 15.3126 3.67502C20.8251 3.67502 24.5001 8.26877 24.5001 12.8625C24.5001 16.5534 18.5691 22.6167 16.2377 24.8575C15.7083 25.3664 14.8976 25.3899 14.3451 24.9061ZM18.3751 11.6375C18.3751 13.3289 17.004 14.7 15.3126 14.7C13.6212 14.7 12.2501 13.3289 12.2501 11.6375C12.2501 9.94616 13.6212 8.57504 15.3126 8.57504C17.004 8.57504 18.3751 9.94616 18.3751 11.6375Z" fill="#2DCC70"/>
</svg>
